<svg t="1677642589477" class="icon" viewBox="0 0 1024 1024" version="1.1" xmlns="http://www.w3.org/2000/svg" p-id="5133" width="32" height="32"><path d="M435.387733 610.184533l-55.825066-32.9728v-134.485333h55.825066z" p-id="5134" fill="#dbdbdb"></path><path d="M511.505067 782.728533l-233.437867-134.485333V379.2896l233.437867-134.485333 233.437866 134.485333v268.9536zM331.349333 617.813333l180.155734 104.106667 180.155733-104.106667V409.736533l-180.155733-104.106666-180.155734 104.106666z" p-id="5135" fill="#dbdbdb"></path><path d="M486.126933 513.774933h50.756267V752.298667h-50.756267z" p-id="5136" fill="#dbdbdb"></path><path d="M498.824533 490.922667l208.059734-119.2448 25.378133 45.6704-208.059733 119.261866z" p-id="5137" fill="#dbdbdb"></path><path d="M290.747733 416.068267l26.589867-46.08L523.946667 489.045333l-26.641067 46.199467zM580.010667 917.213867L554.666667 871.543467l304.469333-175.086934V361.5232h53.282133V711.68a26.624 26.624 0 0 1-12.680533 22.8352z m-137.0112 0l-319.709867-182.613334A26.641067 26.641067 0 0 1 110.592 711.68V361.5232H163.84v334.933333l304.5376 175.086934zM199.406933 300.629333L174.08 254.958933l324.795733-187.733333a23.005867 23.005867 0 0 1 25.378134 0l324.778666 187.733333-25.378133 45.6704-312.149333-180.155733z" p-id="5138" fill="#dbdbdb"></path><path d="M884.514133 221.969067c-45.6704 0-83.746133 38.058667-83.746133 83.729066s38.075733 83.746133 83.746133 83.746134 83.729067-38.075733 83.729067-83.746134-38.058667-83.729067-83.729067-83.729066z m0 114.176c-17.7664 0-30.446933-12.680533-30.446933-30.446934s12.680533-30.446933 30.446933-30.446933 30.446933 12.680533 30.446934 30.446933S902.263467 336.213333 884.514133 336.213333z m-746.001066-114.176c-45.6704 0-83.746133 38.058667-83.746134 83.729066S92.842667 386.901333 138.513067 386.901333s83.729067-38.058667 83.729066-83.746133-38.058667-81.186133-83.729066-81.186133z m0 114.176c-17.7664 0-30.446933-12.680533-30.446934-30.446934s12.680533-30.446933 30.446934-30.446933S168.96 287.931733 168.96 305.698133 153.736533 336.213333 138.513067 336.213333z m372.992 461.806933c-45.6704 0-83.729067 38.058667-83.729067 83.746133s38.058667 83.729067 83.729067 83.729067 83.729067-38.058667 83.729066-83.729067-38.058667-83.746133-83.729066-83.746133z m0 114.193067c-17.749333 0-30.446933-12.680533-30.446934-30.446934 0-15.223467 12.6976-30.446933 30.446934-30.446933s30.446933 12.680533 30.446933 30.446933c0 15.223467-15.223467 30.446933-30.446933 30.446934z" p-id="5139" fill="#dbdbdb"></path></svg>