<svg t="1675245484939" class="icon" viewBox="0 0 1024 1024" version="1.1" xmlns="http://www.w3.org/2000/svg" p-id="10463" width="32" height="32"><path d="M847.2 217.4H176.8c-43.4 0-78.9 35.5-78.9 78.9v552.1c0 43.4 35.5 78.9 78.9 78.9h670.4c43.4 0 78.9-35.5 78.9-78.9V296.2c0-43.3-35.5-78.8-78.9-78.8z m-698.2 51c7.5-7.5 17.4-11.6 27.8-11.6h670.4c10.4 0 20.3 4.1 27.8 11.6s11.6 17.4 11.6 27.8v256.4H627.4c-8.5-28.5-34.9-49.3-66.1-49.3h-98.6c-31.2 0-57.6 20.8-66.1 49.3H137.4V316h749.2v-19.7H137.4c0-10.5 4.1-20.4 11.6-27.9z m441.9 303.9c0 16.3-13.3 29.6-29.6 29.6h-98.6c-16.3 0-29.6-13.3-29.6-29.6s13.3-29.6 29.6-29.6h98.6c16.3 0 29.6 13.3 29.6 29.6zM875 876.1c-7.5 7.5-17.4 11.6-27.8 11.6H176.8c-10.4 0-20.3-4.1-27.8-11.6s-11.6-17.4-11.6-27.8V592h259.2c8.5 28.5 34.9 49.3 66.1 49.3h98.6c31.2 0 57.6-20.8 66.1-49.3h259.2v256.3c0 10.4-4.1 20.3-11.6 27.8zM354.2 197.7c0-32.6 26.5-59.2 59.2-59.2h197.2c32.6 0 59.2 26.5 59.2 59.2v19.7h39.4v-19.7c0-54.4-44.2-98.6-98.6-98.6H413.4c-54.4 0-98.6 44.2-98.6 98.6v19.7h39.4v-19.7z" p-id="10464"></path></svg>