<svg t="1677642453864" class="icon" viewBox="0 0 1024 1024" version="1.1" xmlns="http://www.w3.org/2000/svg" p-id="4074" width="32" height="32"><path d="M380.36396 566.298587l300.553318 205.558677a149.295574 149.295574 0 1 1-38.731537 76.865893L338.262608 640.818406a149.295574 149.295574 0 1 1-13.180667-226.374746l318.938002-230.299087a149.295574 149.295574 0 1 1 43.082437 74.093261L375.501189 483.418215a149.039639 149.039639 0 0 1 4.905426 82.923028zM789.263209 213.406506a63.983817 63.983817 0 1 0 0-127.967635 63.983817 63.983817 0 0 0 0 127.967635z m0 725.149931a63.983817 63.983817 0 1 0 0-127.967635 63.983817 63.983817 0 0 0 0 127.967635z m-554.526418-341.247027a63.983817 63.983817 0 1 0 0-127.967634 63.983817 63.983817 0 0 0 0 127.967634z" fill="#dbdbdb" p-id="4075"></path></svg>